<svg xmlns="http://www.w3.org/2000/svg" width="1024" height="1024"><path fill="#f4f4fd" d="M1022.995 301.051c-2.4-54.409-11.2-91.814-23.802-124.227-13.005-34.405-33.005-65.208-59.213-90.815-25.606-26.005-56.614-46.212-90.618-59.012C816.76 14.393 779.551 5.594 725.138 3.195 670.322.593 652.92-.009 513.895-.009c-139.027 0-156.429.602-211.041 3.001-54.41 2.399-91.815 11.205-124.22 23.802-34.413 13.003-65.216 33.006-90.822 59.215-26.005 25.606-46.204 56.612-59.012 90.62-12.604 32.608-21.403 69.811-23.801 124.22-2.602 54.815-3.204 72.217-3.204 211.244 0 139.025.602 156.426 3.001 211.044 2.399 54.406 11.205 91.814 23.809 124.224 13.002 34.406 33.202 65.21 59.207 90.816 25.606 26.003 56.612 46.214 90.619 59.008 32.608 12.608 69.811 21.408 124.227 23.802 54.605 2.413 72.014 3.002 211.041 3.002s156.43-.589 211.041-3.002c54.406-2.394 91.814-11.194 124.218-23.802a261.918 261.918 0 0 0 149.837-149.824c12.595-32.608 21.402-69.818 23.802-124.224 2.4-54.618 3.002-72.019 3.002-211.044 0-139.027-.205-156.429-2.605-211.041zM930.784 719.13c-2.208 50.016-10.605 77.018-17.606 95.021-17.21 44.608-52.614 80.019-97.222 97.222-18.003 7.002-45.203 15.405-95.021 17.6-54.01 2.406-70.208 2.995-206.835 2.995s-153.03-.589-206.845-2.995c-50.01-2.195-77.014-10.598-95.018-17.6-22.2-8.205-42.406-21.21-58.808-38.208-17.004-16.608-30.006-36.608-38.211-58.81-7.002-18.003-15.402-45.21-17.597-95.021-2.407-54.01-3.001-70.214-3.001-206.844s.594-153.03 3.001-206.837c2.195-50.01 10.595-77.015 17.597-95.019 8.205-22.207 21.207-42.406 38.414-58.816 16.596-17.004 36.6-30.006 58.808-38.203 18.003-7.002 45.212-15.402 95.018-17.605 54.01-2.399 70.217-3 206.837-3 136.828 0 153.027.602 206.844 3 50.01 2.204 77.018 10.604 95.021 17.605 22.195 8.197 42.406 21.199 58.81 38.203 16.998 16.605 30.003 36.609 38.208 58.816 7.002 18.004 15.398 45.204 17.606 95.019 2.4 54.01 3.002 70.209 3.002 206.837s-.602 152.629-3.002 206.639z"/><path fill="#f4f4fd" d="M513.899 249.039c-145.224 0-263.052 117.82-263.052 263.051 0 145.235 117.828 263.052 263.052 263.052 145.231 0 263.048-117.818 263.048-263.052 0-145.231-117.818-263.051-263.048-263.051zm0 433.687c-94.214 0-170.635-76.415-170.635-170.636s76.421-170.635 170.635-170.635c94.221 0 170.632 76.413 170.632 170.635S608.12 682.726 513.899 682.726zM848.768 238.637c0 33.913-27.494 61.411-61.414 61.411-33.914 0-61.414-27.498-61.414-61.411 0-33.921 27.501-61.411 61.414-61.411 33.92 0 61.414 27.489 61.414 61.411z"/></svg>