<svg xmlns="http://www.w3.org/2000/svg" width="1024" height="1024"><path fill="#f4f4fd" d="M1023.75 1023.994v-.045h.256V648.397c0-183.723-39.552-325.249-254.336-325.249-103.251 0-172.545 56.662-200.833 110.379h-2.986V340.3H362.202v683.649h212.054V685.434c0-89.133 16.896-175.32 127.273-175.32 108.762 0 110.381 101.717 110.381 181.035v332.845h211.84zM16.898 340.344h212.309v683.65H16.898v-683.65zM122.969-.008C55.087-.008.004 55.075.004 122.957s55.083 124.118 122.965 124.118c67.883 0 122.966-56.235 122.966-124.118C245.892 55.074 190.809-.008 122.969-.008z"/></svg>