<svg xmlns="http://www.w3.org/2000/svg" width="1024" height="1024"><path fill="#4d5ae5" d="M1023.17 144.77a17.088 17.088 0 0 0-13.773-11.606l-61.133-8.892-27.358-55.399c-5.734-11.674-24.866-11.674-30.6 0l-27.358 55.399-61.136 8.894a17.105 17.105 0 0 0-13.789 11.606c-1.997 6.178-.342 12.97 4.317 17.494l44.256 43.13-10.445 60.894a17.106 17.106 0 0 0 6.776 16.693c5.309 3.858 12.237 4.334 17.989 1.296l54.682-28.758 54.683 28.758a17.085 17.085 0 0 0 7.954 1.962 17.02 17.02 0 0 0 10.037-3.259 17.042 17.042 0 0 0 6.776-16.693l-10.443-60.894 44.254-43.13a17.12 17.12 0 0 0 4.312-17.494zm-78.813 42.462a17.07 17.07 0 0 0-4.899 15.106l6.11 35.651-32.016-16.827a17.022 17.022 0 0 0-7.955-1.963c-2.73 0-5.443.648-7.954 1.963l-32.018 16.827 6.109-35.651c.957-5.531-.888-11.179-4.898-15.106l-25.925-25.258 35.806-5.206a17.062 17.062 0 0 0 12.853-9.336l16.008-32.426 16.008 32.426a17.066 17.066 0 0 0 12.853 9.336l35.806 5.206-25.89 25.258zM836.272 656.71h-34.136v34.134h34.136V656.71zM836.272 724.979h-34.136v34.134h34.136v-34.134zM870.406 690.845h-34.134v34.134h34.134v-34.134zM802.139 690.845h-34.136v34.134h34.136v-34.134zM716.802 844.448h-34.134v34.133h34.134v-34.133zM716.802 912.714h-34.134v34.136h34.134v-34.136zM750.938 878.581h-34.134v34.136h34.134v-34.136zM682.667 878.581h-34.134v34.136h34.134v-34.136zM512 776.181h-34.134v34.134H512v-34.134zM512 844.448h-34.134v34.133H512v-34.133zM546.134 810.312H512v34.134h34.134v-34.134zM477.866 810.312h-34.134v34.134h34.134v-34.134zM187.728 195.902h-34.134v34.134h34.134v-34.134zM187.728 264.173h-34.134v34.134h34.134v-34.134zM221.861 230.038h-34.134v34.134h34.134v-34.134zM153.593 230.038h-34.134v34.134h34.134v-34.134z"/><path fill="#2e2f42" d="M790.872 453.102c-9.198-12.408-22.698-20.394-38.024-22.546-15.395-2.184-30.586 1.859-42.874 11.264L669.9 472.54l-60.726 45.347-43.451-17.306c77.483-34.765 131.637-112.266 131.637-202.243 0-122.336-99.926-221.87-222.757-221.87s-222.755 99.534-222.755 221.87c0 44.341 13.259 85.573 35.84 120.269l-88.442-.768h-.154c-.274 0-.494.136-.75.155-1.69.067-3.346.41-4.966.989-.41.155-.835.24-1.227.427-.205.085-.41.101-.614.203l-103.46 51.082c-.018 0-.034 0-.034.016l-60.589 29.136a13.22 13.22 0 0 0-2.014 1.126c-24.15 16.075-32.376 47.65-19.148 73.454 7.048 13.722 19.046 23.827 33.793 28.451a57.863 57.863 0 0 0 17.254 2.645c9.268 0 18.45-2.269 26.862-6.757l44.409-23.621 72.448-37.411 43.419-.256L70.34 710.777c-.016.018-.034.018-.052.034l-42.839 42.667c-10.12 10.07-15.684 23.432-15.684 37.685 0 14.234 5.564 27.63 15.684 37.718 10.394 10.342 24.064 15.53 37.735 15.53 13.688 0 27.34-5.187 37.768-15.53l42.053-41.883 55.706-41.592 28.827 28.706-56.373 56.133c-.016.019-.034.019-.053.035l-42.838 42.666c-10.12 10.07-15.684 23.432-15.684 37.685 0 14.234 5.564 27.63 15.684 37.718 10.394 10.342 24.082 15.531 37.753 15.531s27.358-5.189 37.768-15.531l111.411-110.933c.019-.019.019-.035.035-.053l32.307-32-.12-.12c.205-.205.494-.275.701-.494l165.31-181.062 111.072 15.803c.802.12 1.603.171 2.406.171 2.066 0 4.061-.494 5.99-1.229.563-.203 1.058-.478 1.587-.75.614-.307 1.262-.477 1.845-.869l102.827-68.267c.376-.256.579-.667.938-.939.41-.323.922-.459 1.296-.819l40.686-38.11c21.171-19.837 24.088-52.331 6.782-75.576zM68.173 568.645c-5.546 2.97-11.844 3.566-17.868 1.656-5.974-1.861-10.82-5.941-13.654-11.453-5.154-10.035-2.168-22.256 6.86-28.859l42.037-20.226 14.37 42.002-31.744 16.88zm111.907-58.487-49.544 25.6-14.044-41.064 64.856-32.019-1.267 47.483zm483.182-211.854c0 29.389-7.014 57.107-19.166 81.904l-133.805-60.774c-1.4-18.347-10.922-34.406-25.224-44.41l46.848-155.53c76.086 24.202 131.347 95.183 131.347 178.81zm-377.246 0c0-103.51 84.618-187.736 188.622-187.736 8.091 0 16.01.682 23.843 1.672l-45.826 152.119c-.613-.018-1.194-.189-1.826-.189-33.042 0-59.923 26.795-59.923 59.736 0 32.938 26.882 59.734 59.923 59.734 22.221 0 41.421-12.27 51.781-30.227l123.598 56.152c-34.39 46.285-89.432 76.477-151.573 76.477-104.003 0-188.621-84.226-188.621-187.738zm190.603 25.602c0 14.114-11.573 25.6-25.789 25.6s-25.789-11.486-25.789-25.6c0-14.115 11.573-25.602 25.789-25.602s25.789 11.486 25.789 25.602zM78.875 804.68c-7.56 7.493-19.798 7.477-27.34.018-3.636-3.635-5.632-8.429-5.632-13.533 0-5.086 1.996-9.883 5.632-13.483l30.786-30.67 27.239 27.12-30.684 30.549zm102.843 119.47c-7.56 7.491-19.814 7.51-27.358.018-3.636-3.635-5.632-8.43-5.632-13.534 0-5.086 1.996-9.882 5.632-13.482l30.806-30.686 27.256 27.12-30.704 30.565zm111.415-111.003c-.019.016-.035.016-.053.034l-56.475 56.32-27.256-27.12 56.422-56.166v-.016c.019-.018.035-.018.053-.034 1.28-1.28 2.082-2.816 2.867-4.334.222-.445.648-.821.837-1.28.53-1.314.614-2.73.819-4.115.102-.786.445-1.517.445-2.322 0-1.144-.41-2.251-.648-3.379-.205-1.024-.205-2.067-.598-3.054-.648-1.605-1.758-3.021-2.918-4.405-.323-.376-.443-.853-.802-1.211h-.018c-.018-.016-.018-.053-.034-.069l-51.424-51.2c-.546-.546-1.245-.768-1.859-1.229-.904-.699-1.774-1.347-2.782-1.843-.971-.478-1.962-.768-2.986-1.042-1.093-.309-2.15-.547-3.294-.632-1.042-.069-2.014.034-3.054.154-1.144.136-2.218.29-3.328.648-1.075.342-2.03.87-3.019 1.434-.632.358-1.349.478-1.947.922l-56.746 42.362-28.827-28.707 76.768-76.357 139.539 137.237-29.682 29.406zm218.201-224.534c-.494-.067-.957.12-1.451.086-1.246-.069-2.44.018-3.686.222-.971.17-1.893.357-2.816.682-1.091.376-2.082.888-3.09 1.502-.955.579-1.826 1.194-2.662 1.962-.41.358-.904.53-1.28.938L346.005 758.667 207.507 622.456l90.659-90.182c6.674-6.656 6.707-17.459.051-24.15-3.362-3.362-7.781-5.018-12.202-5v-.016l-70.998.427.888-51.44 99.33.854c40.482 41.405 96.939 67.227 159.403 67.227 13.995 0 27.65-1.45 40.944-3.926 1.28 1.024 2.541 2.067 4.147 2.715l77.109 30.72 4.88 24.269 5.701 28.33-96.085-13.67zm129.316 5.701-10.018-49.853 46.285-34.562 30.294 40.21-66.562 44.205zm120.115-90.592-26.811 25.123-29.798-39.562 26.606-20.394c4.965-3.822 11.23-5.376 17.374-4.574 6.178.87 11.64 4.096 15.36 9.096 6.93 9.336 5.752 22.358-2.731 30.31z"/><path fill="#2e2f42" d="m435.266 593.41-68.574-68.267c-6.638-6.638-17.427-6.638-24.083 0l-68.557 68.267c-3.208 3.226-5.018 7.56-5.018 12.099 0 4.541 1.792 8.893 5.018 12.101l68.557 68.267c3.328 3.31 7.699 4.966 12.051 4.966s8.72-1.656 12.032-4.966l68.574-68.267a17.134 17.134 0 0 0 5.034-12.101c0-4.539-1.81-8.891-5.034-12.099zm-80.607 56.286-44.376-44.187 44.376-44.186 44.39 44.186-44.39 44.187zM549.256 162.264l-8.245 33.146c2.27.563 55.605 14.456 55.605 68.763h34.134c-.002-64.549-53.301-94.894-81.494-101.909zM630.752 298.304h-34.134v34.136h34.134v-34.136z"/></svg>